# xmcd
#
# Track frame offsets: 
#        150
#        13178
#        31080
#        44911
#        57877
#        73822
#        91689
#        111774
#        132207
#        148856
#        162847
#
# Disc length: 2458 seconds
#
# Revision: 0
# Processed by: cddbd v1.5.2PL0 Copyright (c) Steve Scherf et al.
# Submitted via: ExactAudioCopy v1.0b1
#
DISCID=9809980b
DTITLE=凡夫 - 又見思想起
DYEAR=2009
DGENRE=Country
TTITLE0=又見思想起
TTITLE1=阿爸的腳赤屏
TTITLE2=恆春人
TTITLE3=阿達仔兄
TTITLE4=海墘仔大漢的囝仔
TTITLE5=阮的愛人啊是恆春
TTITLE6=故鄉
TTITLE7=五月雪
TTITLE8=黃金海岸
TTITLE9=愛
TTITLE10=柚感
EXTD=
EXTT0=
EXTT1=
EXTT2=
EXTT3=
EXTT4=
EXTT5=
EXTT6=
EXTT7=
EXTT8=
EXTT9=
EXTT10=
PLAYORDER=
